<?xml version="1.0" standalone="no"?><svg xmlns="http://www.w3.org/2000/svg" viewBox="0 0 1440 320"><path fill="#0099ff" fill-opacity="1" d="M0,320L21.8,309.3C43.6,299,87,277,131,240C174.5,203,218,149,262,149.3C305.5,149,349,203,393,192C436.4,181,480,107,524,117.3C567.3,128,611,224,655,261.3C698.2,299,742,277,785,256C829.1,235,873,213,916,181.3C960,149,1004,107,1047,85.3C1090.9,64,1135,64,1178,96C1221.8,128,1265,192,1309,208C1352.7,224,1396,192,1418,176L1440,160L1440,320L1418.2,320C1396.4,320,1353,320,1309,320C1265.5,320,1222,320,1178,320C1134.5,320,1091,320,1047,320C1003.6,320,960,320,916,320C872.7,320,829,320,785,320C741.8,320,698,320,655,320C610.9,320,567,320,524,320C480,320,436,320,393,320C349.1,320,305,320,262,320C218.2,320,175,320,131,320C87.3,320,44,320,22,320L0,320Z"></path></svg>